<svg width="140" height="140" viewBox="0 0 140 140" fill="none" xmlns="http://www.w3.org/2000/svg">
<rect width="140.005" height="140.005" rx="9" fill="#1F223A"/>
<path d="M61.7741 42.7414C71.2263 52.1936 72.7114 53.6787 78.3237 59.291C68.8715 68.7432 53.5465 68.7432 44.0943 59.291C34.6421 49.8388 34.6421 34.5138 44.0943 25.0616C52.8001 33.7674 52.3219 33.2892 61.7741 42.7414Z" fill="#F57303"/>
<path d="M79.3598 59.385C88.812 68.8372 90.2971 70.3224 95.9095 75.9347C105.362 66.4825 105.362 51.1575 95.9095 41.7053C86.4573 32.2531 71.1322 32.2531 61.68 41.7053C70.3858 50.4111 69.9076 49.9328 79.3598 59.385Z" fill="#F77503"/>
<path d="M33.0583 105.711C32.2194 105.711 31.6026 105.674 31.2078 105.6C30.8131 105.526 30.6157 105.44 30.6157 105.341L31.3559 103.731C31.6396 103.781 32.3428 103.83 33.4654 103.879C34.6003 103.916 36.1547 103.935 38.1285 103.935H38.4801C39.0105 103.935 39.3868 103.842 39.6089 103.657C39.8309 103.46 39.9419 103.133 39.9419 102.677V102.306C39.9419 101.875 39.8494 101.566 39.6644 101.381C39.4917 101.196 39.0969 101.104 38.4801 101.104H34.187C32.9411 101.104 32.0343 100.875 31.4669 100.419C30.8994 99.9502 30.6157 99.1916 30.6157 98.143V97.8469C30.6157 97.3041 30.7144 96.8045 30.9117 96.348C31.1215 95.8916 31.473 95.5277 31.9665 95.2563C32.46 94.9725 33.1384 94.8307 34.002 94.8307H39.0352C39.8741 94.8307 40.5526 94.8738 41.0707 94.9602C41.5888 95.0466 41.8479 95.1391 41.8479 95.2378L41.4778 96.7921C41.1571 96.7551 40.4292 96.7181 39.2943 96.6811C38.1593 96.6318 36.6358 96.6071 34.7237 96.6071L34.5201 96.5886C33.9526 96.5886 33.5702 96.7058 33.3728 96.9402C33.1755 97.1622 33.0706 97.446 33.0583 97.7914V98.106C33.0583 98.5131 33.1693 98.8215 33.3913 99.0312C33.6257 99.2286 34.0082 99.3273 34.5386 99.3273H38.6466C39.4361 99.3273 40.1085 99.4074 40.6636 99.5678C41.2187 99.7282 41.6443 100.024 41.9404 100.456C42.2365 100.875 42.3845 101.498 42.3845 102.325V102.621C42.3845 103.546 42.144 104.293 41.6629 104.86C41.1941 105.428 40.3737 105.711 39.2018 105.711H33.0583ZM48.1738 105.711C47.3103 105.711 46.6318 105.588 46.1383 105.341C45.6449 105.094 45.2933 104.724 45.0836 104.231C44.8862 103.737 44.7875 103.127 44.7875 102.399V98.1245C44.7875 97.409 44.8862 96.8106 45.0836 96.3295C45.281 95.8361 45.6264 95.466 46.1198 95.2193C46.6133 94.9602 47.2979 94.8307 48.1738 94.8307H53.5771C54.4407 94.8307 55.113 94.9602 55.5941 95.2193C56.0876 95.466 56.433 95.8361 56.6304 96.3295C56.8401 96.8106 56.945 97.409 56.945 98.1245V102.399C56.945 103.485 56.7044 104.311 56.2233 104.879C55.7422 105.434 54.8601 105.711 53.5771 105.711H48.1738ZM48.7105 103.935H53.059C53.5155 103.935 53.867 103.818 54.1138 103.583C54.3728 103.349 54.5024 103.028 54.5024 102.621V97.9024C54.5024 97.5447 54.3728 97.2424 54.1138 96.9957C53.8547 96.7366 53.5031 96.6071 53.059 96.6071H48.7105C48.2663 96.6071 47.9086 96.7243 47.6372 96.9587C47.3658 97.1931 47.2301 97.5076 47.2301 97.9024V102.621C47.2301 103.04 47.3596 103.367 47.6187 103.602C47.8901 103.824 48.254 103.935 48.7105 103.935ZM59.7183 105.711L59.9034 104.231V94.8307H62.346V103.935H70.0068L70.747 105.508C70.747 105.557 70.5805 105.606 70.2474 105.656C69.9143 105.693 69.3407 105.711 68.5265 105.711H59.7183ZM75.6053 105.711C74.7294 105.711 74.0447 105.588 73.5513 105.341C73.0578 105.094 72.7124 104.724 72.515 104.231C72.3177 103.737 72.219 103.127 72.219 102.399V98.2725C72.219 97.0882 72.4842 96.2185 73.0147 95.6634C73.5451 95.0959 74.4087 94.8122 75.6053 94.8122H81.1751C82.0263 94.8122 82.674 94.8615 83.1181 94.9602C83.5746 95.0466 83.8028 95.1391 83.8028 95.2378L83.4327 96.7736C83.223 96.7366 82.6 96.6996 81.5637 96.6626C80.5398 96.6133 79.0471 96.5886 77.0856 96.5886H76.1419C75.155 96.5886 74.6616 97.0265 74.6616 97.9024V102.621C74.6616 103.04 74.7664 103.367 74.9761 103.602C75.1982 103.824 75.5868 103.935 76.1419 103.935H76.9006C78.0849 103.935 79.0841 103.929 79.8983 103.916C80.7125 103.892 81.3849 103.873 81.9153 103.861V101.344L80.805 101.363L78.381 101.548V99.7344H84.3394V104.934L84.5244 105.323C84.5244 105.421 84.2654 105.514 83.7473 105.6C83.2291 105.674 82.3533 105.711 81.1196 105.711H75.6053ZM87.1136 105.711V94.8307H98.6234V96.6071H89.5562V99.1607H96.4769V100.993H89.5562V103.935H98.6974L99.4376 105.508C99.4376 105.557 99.2711 105.606 98.938 105.656C98.6049 105.693 98.0313 105.711 97.2171 105.711H87.1136ZM101.466 105.711V96.311L101.281 94.8307H103.946L110.237 101.418L110.959 102.418H111.163V94.8307H113.605V105.711H111.255L104.815 99.0127L104.094 98.143H103.909V105.711H101.466Z" fill="white"/>
<path d="M28.005 120.772L27.9976 117.123H26.0731V116.412H30.9139V117.123H28.982V120.772H28.005ZM35.6535 120.772V116.419H40.2574V117.13H36.6306V118.151H39.3988V118.884H36.6306V120.061H40.287L40.5831 120.69C40.5831 120.71 40.5165 120.73 40.3833 120.749C40.25 120.764 40.0206 120.772 39.6949 120.772H35.6535ZM46.598 120.772C46.2476 120.772 45.9738 120.722 45.7764 120.624C45.579 120.525 45.4409 120.377 45.3619 120.18C45.2829 119.982 45.2435 119.738 45.2435 119.447V117.796C45.2435 117.322 45.3496 116.975 45.5617 116.752C45.7739 116.526 46.1193 116.412 46.598 116.412H48.8259C49.1664 116.412 49.4255 116.432 49.6031 116.471C49.7857 116.506 49.877 116.543 49.877 116.582L49.729 117.197C49.6451 117.182 49.3959 117.167 48.9814 117.152C48.5718 117.132 47.9747 117.123 47.1901 117.123H46.8127C46.4179 117.123 46.2205 117.298 46.2205 117.648V119.536C46.2205 119.703 46.2624 119.834 46.3463 119.928C46.4352 120.017 46.5906 120.061 46.8127 120.061H47.1161C47.9353 120.061 48.5693 120.054 49.0184 120.039C49.4724 120.019 49.7536 119.999 49.8622 119.98L50.1657 120.468C50.1657 120.493 50.1237 120.53 50.0398 120.579C49.9609 120.629 49.8128 120.673 49.5957 120.712C49.3786 120.752 49.0653 120.772 48.6557 120.772H46.598ZM54.9019 120.772V116.419H55.879V118.225H58.7805V116.419H59.7575V120.772H58.7805V118.936H55.879V120.772H54.9019ZM65.0158 120.772V117.012L64.9418 116.419H66.0076L68.5243 119.054L68.8129 119.454H68.8943V116.419H69.8714V120.772H68.9314L66.3555 118.092L66.0669 117.744H65.9928V120.772H65.0158ZM76.3344 120.772C75.989 120.772 75.7176 120.722 75.5202 120.624C75.3228 120.525 75.1822 120.377 75.0983 120.18C75.0194 119.982 74.9799 119.738 74.9799 119.447V117.737C74.9799 117.451 75.0194 117.211 75.0983 117.019C75.1773 116.822 75.3154 116.674 75.5128 116.575C75.7102 116.471 75.9841 116.419 76.3344 116.419H78.4957C78.8412 116.419 79.1101 116.471 79.3025 116.575C79.4999 116.674 79.6381 116.822 79.717 117.019C79.8009 117.211 79.8429 117.451 79.8429 117.737V119.447C79.8429 119.881 79.7466 120.212 79.5542 120.439C79.3618 120.661 79.0089 120.772 78.4957 120.772H76.3344ZM76.5491 120.061H78.2885C78.4711 120.061 78.6117 120.014 78.7104 119.92C78.814 119.827 78.8658 119.698 78.8658 119.536V117.648C78.8658 117.505 78.814 117.384 78.7104 117.285C78.6068 117.182 78.4661 117.13 78.2885 117.13H76.5491C76.3714 117.13 76.2283 117.177 76.1198 117.271C76.0112 117.364 75.9569 117.49 75.9569 117.648V119.536C75.9569 119.703 76.0087 119.834 76.1124 119.928C76.2209 120.017 76.3665 120.061 76.5491 120.061ZM84.9492 120.772L85.0232 120.18V116.419H86.0002V120.061H89.0646L89.3607 120.69C89.3607 120.71 89.294 120.73 89.1608 120.749C89.0276 120.764 88.7981 120.772 88.4724 120.772H84.9492ZM95.3009 120.772C94.9555 120.772 94.6841 120.722 94.4867 120.624C94.2894 120.525 94.1487 120.377 94.0648 120.18C93.9859 119.982 93.9464 119.738 93.9464 119.447V117.737C93.9464 117.451 93.9859 117.211 94.0648 117.019C94.1438 116.822 94.282 116.674 94.4793 116.575C94.6767 116.471 94.9506 116.419 95.3009 116.419H97.4623C97.8077 116.419 98.0766 116.471 98.2691 116.575C98.4664 116.674 98.6046 116.822 98.6836 117.019C98.7675 117.211 98.8094 117.451 98.8094 117.737V119.447C98.8094 119.881 98.7132 120.212 98.5207 120.439C98.3283 120.661 97.9755 120.772 97.4623 120.772H95.3009ZM95.5156 120.061H97.255C97.4376 120.061 97.5782 120.014 97.6769 119.92C97.7805 119.827 97.8324 119.698 97.8324 119.536V117.648C97.8324 117.505 97.7805 117.384 97.6769 117.285C97.5733 117.182 97.4327 117.13 97.255 117.13H95.5156C95.338 117.13 95.1949 117.177 95.0863 117.271C94.9777 117.364 94.9235 117.49 94.9235 117.648V119.536C94.9235 119.703 94.9753 119.834 95.0789 119.928C95.1875 120.017 95.333 120.061 95.5156 120.061ZM105.196 120.772C104.846 120.772 104.572 120.722 104.375 120.624C104.177 120.525 104.039 120.377 103.96 120.18C103.881 119.982 103.842 119.738 103.842 119.447V117.796C103.842 117.322 103.948 116.975 104.16 116.752C104.372 116.526 104.718 116.412 105.196 116.412H107.424C107.765 116.412 108.024 116.432 108.201 116.471C108.384 116.506 108.475 116.543 108.475 116.582L108.327 117.197C108.243 117.182 107.994 117.167 107.58 117.152C107.17 117.132 106.573 117.123 105.788 117.123H105.411C105.016 117.123 104.819 117.298 104.819 117.648V119.536C104.819 119.703 104.861 119.834 104.945 119.928C105.033 120.017 105.189 120.061 105.411 120.061H105.714C106.188 120.061 106.588 120.059 106.913 120.054C107.239 120.044 107.508 120.036 107.72 120.031V119.025L107.276 119.032L106.306 119.106V118.381H108.69V120.461L108.764 120.616C108.764 120.656 108.66 120.693 108.453 120.727C108.246 120.757 107.895 120.772 107.402 120.772H105.196ZM115.432 120.772V118.966L113.278 116.419H114.463L115.558 117.804L115.899 118.262H115.973L116.313 117.804L117.409 116.419H118.593L118.304 116.864L116.409 118.995V120.772H115.432Z" fill="#F77503"/>
</svg>
